# xmcd
#
# Track frame offsets: 
#        150
#        18500
#        39067
#        56997
#        75800
#        95979
#        118237
#        140817
#        160830
#        180022
#        200052
#        221192
#        245710
#        268175
#        286570
#        297887
#
# Disc length: 4243 seconds
#
# Revision: 7
# Processed by: cddbd v1.5.2PL0 Copyright (c) Steve Scherf et al.
# Submitted via: ExactAudioCopy v1.3
#
DISCID=ee109110
DTITLE=EUROPE - Rock The Night: The Very Best Of Europe CD-1
DYEAR=2004
DGENRE=Hard Rock
TTITLE0=Rock The Night
TTITLE1=Superstitious
TTITLE2=I'll Cry For You (Acoustic Version)
TTITLE3=Cherokee
TTITLE4=Stormwind
TTITLE5=Sweet Love Child (Single B-Side)
TTITLE6=In The Future To Come
TTITLE7=Here Comes The Night
TTITLE8=Sign Of The Times
TTITLE9=Dreamer
TTITLE10=Seventh Sign
TTITLE11=Yesterday's News
TTITLE12=Got Your Mind In The Gutter
TTITLE13=Ready Or Not
TTITLE14=Aphasia
TTITLE15=Time Has Come (Live)
EXTD=
EXTT0=
EXTT1=
EXTT2=
EXTT3=
EXTT4=
EXTT5=
EXTT6=
EXTT7=
EXTT8=
EXTT9=
EXTT10=
EXTT11=
EXTT12=
EXTT13=
EXTT14=
EXTT15=
PLAYORDER=
